<svg width="44" height="41" viewBox="0 0 44 41" fill="none" xmlns="http://www.w3.org/2000/svg">
<path d="M13.5455 39H9C5.13401 39 2 35.866 2 32V20.759C2 18.8224 2.80228 16.9723 4.21603 15.6488L17.216 3.47861C19.9076 0.95881 24.0924 0.958806 26.784 3.47861L39.784 15.6488C41.1977 16.9723 42 18.8224 42 20.759V32C42 35.866 38.866 39 35 39H30.4545C28.7977 39 27.4545 37.6569 27.4545 36V28.383C27.4545 26.7261 26.1114 25.383 24.4545 25.383H19.5455C17.8886 25.383 16.5455 26.7261 16.5455 28.383V36C16.5455 37.6569 15.2023 39 13.5455 39Z" stroke="black" stroke-width="3"/>
</svg>
